/* XPM */
static char * C:\Users\stomb\OneDrive _ stud_hshl_de\Studium\Coin Grafiken\bitcoin64_xpm[] = {
"64 64 56 1",
" 	c None",
".	c #000000",
"+	c #798600",
"@	c #758200",
"#	c #7B8810",
"$	c #002147",
"%	c #001F45",
"&	c #001130",
"*	c #4D5801",
"=	c #C2D603",
"-	c #BCCF03",
";	c #C6D91D",
">	c #000825",
",	c #01427A",
"'	c #013F76",
")	c #002550",
"!	c #014179",
"~	c #013E75",
"{	c #00254F",
"]	c #BFD401",
"^	c #BED300",
"/	c #C9DD1A",
"(	c #000422",
"_	c #003976",
":	c #003671",
"<	c #003571",
"[	c #003C74",
"}	c #BFD302",
"|	c #3D411E",
"1	c #5D6327",
"2	c #606730",
"3	c #273C4D",
"4	c #263A4A",
"5	c #092950",
"6	c #BED303",
"7	c #031F45",
"8	c #021F45",
"9	c #011E44",
"0	c #C0D502",
"a	c #011B3C",
"b	c #C2D601",
"c	c #C0D401",
"d	c #CADD1B",
"e	c #000424",
"f	c #013C78",
"g	c #003974",
"h	c #003973",
"i	c #013E77",
"j	c #4E5901",
"k	c #C7DB01",
"l	c #C1D501",
"m	c #CBDE1C",
"n	c #000624",
"o	c #013F7A",
"p	c #003B76",
"q	c #00224F",
"                                                                ",
"                                                                ",
"                           ...........                          ",
"                       ...             ...                      ",
"                    ..                    ..                    ",
"                  ..                        ..                  ",
"                ..                            ..                ",
"               .                                ..              ",
"             ..                                   .             ",
"            .                                      .            ",
"           .                                        .           ",
"          .                                          .          ",
"         .                                            .         ",
"        .                                              .        ",
"        .                                               .       ",
"       .                                                .       ",
"      .                                                  .      ",
"      .                                                         ",
"     .                                                    .     ",
"     .                                                     .    ",
"    .                                                      .    ",
"    .      +@@@@@@@@@@@@@@@@@@#   $%%%%%%%%%%%%%%%%%%&     .    ",
"          *=------------------;  >,'''''''''''''''''')      .   ",
"   .      *=------------------;  >!~~~~~~~~~~~~~~~~~~{      .   ",
"   .      *=------------------;  >!~~~~~~~~~~~~~~~~~~{      .   ",
"   .      *=------------------;  >!~~~~~~~~~~~~~~~~~~{       .  ",
"  .       *=------------------;  >!~~~~~~~~~~~~~~~~~~{       .  ",
"  .       *=------------------;  >!~~~~~~~~~~~~~~~~~~{       .  ",
"  .       *=------------------;  >!~~~~~~~~~~~~~~~~~~{       .  ",
"  .       *=----------]^^^^^^^/  (_::::::<[~~~~~~~~~~{       .  ",
"  .       *=---------}|11111112   3444444 5'~~~~~~~~~{       .  ",
"  .       *=---------6                    7'~~~~~~~~~{       .  ",
"  .       *=---------6                    8'~~~~~~~~~{       .  ",
"  .       *=---------6                    9'~~~~~~~~~{       .  ",
"  .       *=---------0                    a'~~~~~~~~~{       .  ",
"  .       *=----------bcccccccd  efgggggghi~~~~~~~~~~{       .  ",
"  .       *=------------------;  >!~~~~~~~~~~~~~~~~~~{       .  ",
"  .       *=------------------;  >!~~~~~~~~~~~~~~~~~~{       .  ",
"          *=------------------;  >!~~~~~~~~~~~~~~~~~~{       .  ",
"   .      *=------------------;  >!~~~~~~~~~~~~~~~~~~{          ",
"   .      *=------------------;  >!~~~~~~~~~~~~~~~~~~{      .   ",
"   .      *=------------------;  >!~~~~~~~~~~~~~~~~~~{      .   ",
"    .     jkllllllllllllllllllm  noppppppppppppppppppq          ",
"    .                                                      .    ",
"     .                                                     .    ",
"     .                                                    .     ",
"      .                                                   .     ",
"      .                                                  .      ",
"       .                                                .       ",
"                                                        .       ",
"        .                                              .        ",
"         .                                            .         ",
"          .                                          .          ",
"           .                                        .           ",
"            .                                      .            ",
"             .                                    .             ",
"              ..                                ..              ",
"                .                              .                ",
"                  .                          ..                 ",
"                   ...                     ..                   ",
"                      ...               ..                      ",
"                         ..............                         ",
"                                                                ",
"                                                                "};
