/* XPM */
static char * C:\Users\stomb\OneDrive _ stud_hshl_de\Studium\Coin Grafiken\bitcoin128_xpm[] = {
"128 128 62 1",
" 	c None",
".	c #000000",
"+	c #000001",
"@	c #000100",
"#	c #556101",
"$	c #C3D900",
"%	c #C3D800",
"&	c #C4D900",
"*	c #D8ED35",
"=	c #000326",
"-	c #003674",
";	c #003472",
">	c #535E01",
",	c #BDD002",
"'	c #BCCF03",
")	c #BDD003",
"!	c #D0E238",
"~	c #000B2A",
"{	c #014077",
"]	c #013E75",
"^	c #BDCF02",
"/	c #D0E237",
"(	c #B7CB00",
"_	c #B5CA00",
":	c #B6CB00",
"<	c #C9DD2C",
"[	c #000222",
"}	c #002C68",
"|	c #002A66",
"1	c #002D69",
"2	c #BDD201",
"3	c #5E651E",
"4	c #636925",
"5	c #6A7039",
"6	c #131824",
"7	c #243B4D",
"8	c #243A4C",
"9	c #2C4355",
"0	c #253B4D",
"a	c #203749",
"b	c #00326F",
"c	c #C1D701",
"d	c #040000",
"e	c #003070",
"f	c #0A0801",
"g	c #00306F",
"h	c #050200",
"i	c #090801",
"j	c #020000",
"k	c #080600",
"l	c #C2D801",
"m	c #003170",
"n	c #C5DA00",
"o	c #014076",
"p	c #014177",
"q	c #013F75",
"r	c #566201",
"s	c #C6DB00",
"t	c #DBEE37",
"u	c #000628",
"v	c #003B78",
"w	c #003976",
"                                                                                                                                ",
"                                                                                                                                ",
"                                                                                                                                ",
"                                                                                                                                ",
"                                                       ..................                                                       ",
"                                                  ............................                                                  ",
"                                              ........                    ........                                              ",
"                                           .......                             ......                                           ",
"                                         .....                                    ......                                        ",
"                                       ....                                          .....                                      ",
"                                     ....                                               ....                                    ",
"                                   ....                                                   ....                                  ",
"                                 ....                                                       ...                                 ",
"                                ...                                                          ....                               ",
"                              ...                                                              ...                              ",
"                             ...                                                                 ...                            ",
"                           ...                                                                    ...                           ",
"                          ...                                                                       ..                          ",
"                         ...                                                                         ...                        ",
"                        ..                                                                            ...                       ",
"                       ..                                                                              ...                      ",
"                      ..                                                                                ...                     ",
"                     ..                                                                                  ...                    ",
"                    ..                                                                                    ...                   ",
"                   ..                                                                                      ...                  ",
"                  ..                                                                                        ...                 ",
"                 ..                                                                                          ..                 ",
"                ...                                                                                           ..                ",
"                ..                                                                                             ..               ",
"               ..                                                                                              ...              ",
"              ..                                                                                                ..              ",
"              ..                                                                                                 ..             ",
"             ..                                                                                                  ...            ",
"            ..                                                                                                    ..            ",
"            ..                                                                                                     ..           ",
"           ..                                                                                                      ..           ",
"           ..                                                                                                       ..          ",
"          ..                                                                                                        ..          ",
"          ..                                                                                                         ..         ",
"         ..                                                                                                          ..         ",
"         ..                                                                                                           ..        ",
"        ..                                                                                                            ..        ",
"        ..           ++++++++++++++++++++++++++++++++++++++++.     @.......................................@           ..       ",
"       ..            #$%%%%%%%%%%%%%%%%%%%%%%%%%%%%%%%%%%%%%&*.    =-;;;;;;;;;;;;;;;;;;;;;;;;;;;;;;;;;;;;;-=           ..       ",
"       ..            >,''''''''''''''''''''''''''''''''''''')!.    ~{]]]]]]]]]]]]]]]]]]]]]]]]]]]]]]]]]]]]]{~           ..       ",
"       ..            >^''''''''''''''''''''''''''''''''''''')/.    ~{]]]]]]]]]]]]]]]]]]]]]]]]]]]]]]]]]]]]]{~            ..      ",
"      ..             >^''''''''''''''''''''''''''''''''''''')/.    ~{]]]]]]]]]]]]]]]]]]]]]]]]]]]]]]]]]]]]]{~            ..      ",
"      ..             >^''''''''''''''''''''''''''''''''''''')/.    ~{]]]]]]]]]]]]]]]]]]]]]]]]]]]]]]]]]]]]]{~            ..      ",
"      ..             >^''''''''''''''''''''''''''''''''''''')/.    ~{]]]]]]]]]]]]]]]]]]]]]]]]]]]]]]]]]]]]]{~             ..     ",
"      ..             >^''''''''''''''''''''''''''''''''''''')/.    ~{]]]]]]]]]]]]]]]]]]]]]]]]]]]]]]]]]]]]]{~             ..     ",
"     ..              >^''''''''''''''''''''''''''''''''''''')/.    ~{]]]]]]]]]]]]]]]]]]]]]]]]]]]]]]]]]]]]]{~             ..     ",
"     ..              >^''''''''''''''''''''''''''''''''''''')/.    ~{]]]]]]]]]]]]]]]]]]]]]]]]]]]]]]]]]]]]]{~             ..     ",
"     ..              >^''''''''''''''''''''''''''''''''''''')/.    ~{]]]]]]]]]]]]]]]]]]]]]]]]]]]]]]]]]]]]]{~              ..    ",
"     ..              >^''''''''''''''''''''''''''''''''''''')/.    ~{]]]]]]]]]]]]]]]]]]]]]]]]]]]]]]]]]]]]]{~              ..    ",
"     ..              >^''''''''''''''''''''''''''''''''''''')/.    ~{]]]]]]]]]]]]]]]]]]]]]]]]]]]]]]]]]]]]]{~              ..    ",
"    ..               >^''''''''''''''''''''''''''''''''''''')/.    ~{]]]]]]]]]]]]]]]]]]]]]]]]]]]]]]]]]]]]]{~              ..    ",
"    ..               >^''''''''''''''''''''''''''''''''''''')/.    ~{]]]]]]]]]]]]]]]]]]]]]]]]]]]]]]]]]]]]]{~              ..    ",
"    ..               >^''''''''''''''''''''''''''''''''''''')/.    ~{]]]]]]]]]]]]]]]]]]]]]]]]]]]]]]]]]]]]]{~              ..    ",
"    ..               >^''''''''''''''''''''''''''''''''''''')/.    ~{]]]]]]]]]]]]]]]]]]]]]]]]]]]]]]]]]]]]]{~               .    ",
"    ..               >^'''''''''''''''''''')(_______________:<.    [}|||||||||||||||1{]]]]]]]]]]]]]]]]]]]]{~               ..   ",
"    ..               >^''''''''''''''''''''2344444444444444445.    67888888888888790ab]]]]]]]]]]]]]]]]]]]]{~               ..   ",
"    ..               >^''''''''''''''''''''c+                                       de]]]]]]]]]]]]]]]]]]]]{~               ..   ",
"    ..               >^''''''''''''''''''''c+                                       fg]]]]]]]]]]]]]]]]]]]]{~               ..   ",
"    ..               >^''''''''''''''''''''c+                                       he]]]]]]]]]]]]]]]]]]]]{~               ..   ",
"    ..               >^''''''''''''''''''''c+                                       he]]]]]]]]]]]]]]]]]]]]{~               ..   ",
"    ..               >^''''''''''''''''''''c+                                       ig]]]]]]]]]]]]]]]]]]]]{~               ..   ",
"    ..               >^''''''''''''''''''''c+                                       de]]]]]]]]]]]]]]]]]]]]{~               ..   ",
"    ..               >^''''''''''''''''''''c+                                       je]]]]]]]]]]]]]]]]]]]]{~               ..   ",
"    ..               >^''''''''''''''''''''c+                                       kg]]]]]]]]]]]]]]]]]]]]{~               ..   ",
"    ..               >^''''''''''''''''''''l+++++++++++++++++.     @.................m]]]]]]]]]]]]]]]]]]]]{~               .    ",
"    ..               >^'''''''''''''''''''''n%%%%%%%%%%%%%%%&*.    =-;;;;;;;;;;;;;;;-o]]]]]]]]]]]]]]]]]]]]{~              ..    ",
"    ..               >^''''''''''''''''''''''''''''''''''''')!.    ~{]]]]]]]]]]]]]]]]]]]]]]]]]]]]]]]]]]]]]{~              ..    ",
"    ..               >^''''''''''''''''''''''''''''''''''''')/.    ~{]]]]]]]]]]]]]]]]]]]]]]]]]]]]]]]]]]]]]{~              ..    ",
"     .               >^''''''''''''''''''''''''''''''''''''')/.    ~{]]]]]]]]]]]]]]]]]]]]]]]]]]]]]]]]]]]]]{~              ..    ",
"     ..              >^''''''''''''''''''''''''''''''''''''')/.    ~{]]]]]]]]]]]]]]]]]]]]]]]]]]]]]]]]]]]]]{~              ..    ",
"     ..              >^''''''''''''''''''''''''''''''''''''')/.    ~{]]]]]]]]]]]]]]]]]]]]]]]]]]]]]]]]]]]]]{~              ..    ",
"     ..              >^''''''''''''''''''''''''''''''''''''')/.    ~{]]]]]]]]]]]]]]]]]]]]]]]]]]]]]]]]]]]]]{~              .     ",
"     ..              >^''''''''''''''''''''''''''''''''''''')/.    ~{]]]]]]]]]]]]]]]]]]]]]]]]]]]]]]]]]]]]]{~             ..     ",
"      .              >^''''''''''''''''''''''''''''''''''''')/.    ~{]]]]]]]]]]]]]]]]]]]]]]]]]]]]]]]]]]]]]{~             ..     ",
"      ..             >^''''''''''''''''''''''''''''''''''''')/.    ~{]]]]]]]]]]]]]]]]]]]]]]]]]]]]]]]]]]]]]{~             ..     ",
"      ..             >^''''''''''''''''''''''''''''''''''''')/.    ~{]]]]]]]]]]]]]]]]]]]]]]]]]]]]]]]]]]]]]{~             .      ",
"      ..             >^''''''''''''''''''''''''''''''''''''')/.    ~{]]]]]]]]]]]]]]]]]]]]]]]]]]]]]]]]]]]]]{~            ..      ",
"       ..            >^''''''''''''''''''''''''''''''''''''')/.    ~{]]]]]]]]]]]]]]]]]]]]]]]]]]]]]]]]]]]]]{~            ..      ",
"       ..            >^''''''''''''''''''''''''''''''''''''')/.    ~{]]]]]]]]]]]]]]]]]]]]]]]]]]]]]]]]]]]]]{~            ..      ",
"       ..            >,''''''''''''''''''''''''''''''''''''')!.    ~pqqqqqqqqqqqqqqqqqqqqqqqqqqqqqqqqqqqqqp~           ..       ",
"        ..           rnnnnnnnnnnnnnnnnnnnnnnnnnnnnnnnnnnnnnnst.    uvwwwwwwwwwwwwwwwwwwwwwwwwwwwwwwwwwwwwwvu           ..       ",
"        ..           ++++++++++++++++++++++++++++++++++++++++.     .........................................          ..        ",
"        ..                                                                                                            ..        ",
"         ..                                                                                                           ..        ",
"         ..                                                                                                          ..         ",
"          ..                                                                                                         ..         ",
"          ..                                                                                                        ..          ",
"           ..                                                                                                       ..          ",
"           ...                                                                                                     ..           ",
"            ..                                                                                                    ...           ",
"             ..                                                                                                   ..            ",
"             ..                                                                                                  ..             ",
"              ..                                                                                                ...             ",
"               ..                                                                                               ..              ",
"               ..                                                                                              ..               ",
"                ..                                                                                            ...               ",
"                 ..                                                                                          ...                ",
"                  ..                                                                                         ..                 ",
"                  ...                                                                                       ..                  ",
"                   ...                                                                                     ..                   ",
"                    ...                                                                                   ..                    ",
"                     ...                                                                                 ..                     ",
"                      ...                                                                               ..                      ",
"                       ...                                                                             ..                       ",
"                        ...                                                                          ...                        ",
"                         ...                                                                        ...                         ",
"                           ...                                                                     ...                          ",
"                            ...                                                                  ....                           ",
"                             ....                                                               ...                             ",
"                               ...                                                            ....                              ",
"                                ....                                                         ...                                ",
"                                  ....                                                     ....                                 ",
"                                    ....                                                 ....                                   ",
"                                      ....                                            .....                                     ",
"                                        .....                                       .....                                       ",
"                                          ......                                 .....                                          ",
"                                             .......                         .......                                            ",
"                                                ..........            ..........                                                ",
"                                                    ........................                                                    ",
"                                                           ..........                                                           ",
"                                                                                                                                ",
"                                                                                                                                ",
"                                                                                                                                "};
