/* XPM */
static char * C:\Users\stomb\OneDrive _ stud_hshl_de\Studium\Coin Grafiken\bitcoin16_xpm[] = {
"16 16 29 1",
" 	c None",
".	c #AABB02",
"+	c #A9BA02",
"@	c #9FAF09",
"#	c #013668",
"$	c #013669",
"%	c #BED103",
"&	c #BCCF03",
"*	c #B1C20A",
"=	c #002C6B",
"-	c #013E75",
";	c #013F76",
">	c #013062",
",	c #AFC005",
"'	c #A9BB0A",
")	c #9FAF0F",
"!	c #083A6B",
"~	c #05396B",
"{	c #A4B502",
"]	c #003060",
"^	c #BDD003",
"/	c #BDD103",
"(	c #B2C40A",
"_	c #ADBF03",
":	c #ACBE03",
"<	c #A2B309",
"[	c #002762",
"}	c #01386B",
"|	c #01386C",
"                ",
"                ",
"                ",
"                ",
"                ",
"   .+++@ ###$   ",
"   %&&&*=---;>  ",
"   %&,') !~-;>  ",
"   %&{    ];;>  ",
"   %&^/(=;;-;>  ",
"   _:::<[}}}|   ",
"                ",
"                ",
"                ",
"                ",
"                "};
