/* XPM */
static char * C:\Users\stomb\OneDrive _ stud_hshl_de\Studium\Coin Grafiken\bitcoin32_xpm[] = {
"32 32 41 1",
" 	c None",
".	c #000000",
"+	c #9BAB02",
"@	c #BFD203",
"#	c #BFD202",
"$	c #98A718",
"%	c #014179",
"&	c #013F77",
"*	c #013264",
"=	c #98A902",
"-	c #BCCF03",
";	c #BCCF02",
">	c #96A418",
",	c #013E75",
"'	c #013162",
")	c #BED202",
"!	c #BDD102",
"~	c #BDD101",
"{	c #97A516",
"]	c #003C76",
"^	c #003A73",
"/	c #013E76",
"(	c #BED203",
"_	c #033262",
":	c #BDD103",
"<	c #013160",
"[	c #BED103",
"}	c #829002",
"|	c #91A102",
"1	c #91A101",
"2	c #012C59",
"3	c #012B58",
"4	c #012B57",
"5	c #01376A",
"6	c #014077",
"7	c #013263",
"8	c #92A202",
"9	c #92A201",
"0	c #012E5B",
"a	c #012D5A",
"b	c #00244C",
"                                ",
"                                ",
"                                ",
"                                ",
"      .                  .      ",
"     .                    .     ",
"    .                      .    ",
"                                ",
"                                ",
"                                ",
"                                ",
"     +@@@@@@@@#$ %&&&&&&&&*     ",
"     =--------;> &,,,,,,,,'     ",
"     =--------;> &,,,,,,,,'     ",
"     =-----)!!~{ ]^^^/,,,,'     ",
"     =----(          _,,,,'     ",
"     =----:          <,,,,'     ",
"     =----[}||1  23345,,,,'     ",
"     =--------;> 6,,,,,,,,'     ",
"     =--------;> &,,,,,,,,'     ",
"     =--------;> 6,,,,,,,,7     ",
"      888888889  0aaaaaaaab     ",
"                                ",
"                                ",
"                                ",
"    .                      .    ",
"     .                    .     ",
"      .                  .      ",
"                                ",
"                                ",
"                                ",
"                                "};
